<svg version="1.2" xmlns="http://www.w3.org/2000/svg" viewBox="0 0 60 60" width="60" height="60">
	<title>image</title>
	<style>
		.s0 { opacity: .2;fill: none;stroke: #000000;stroke-width: 1.5 } 
		.s1 { fill: #2e3a59 } 
	</style>
	<path id="Layer" class="s0" d="m30 59.3c-16.2 0-29.3-13.1-29.3-29.3 0.1-16.2 13.1-29.2 29.3-29.2 16.2 0 29.3 13 29.3 29.2-0.1 16.2-13.1 29.3-29.3 29.3z"/>
	<path id="Layer" class="s1" d="m25.9 44.3c-1 0-1.9-0.5-2.6-1.2q-1.2-1.1-2.1-2.5-1.4-2.1-2.3-4.5c-0.6-1.7-0.9-3.5-0.9-5.3 0-1.8 0.4-3.5 1.3-5.1 0.6-1.1 1.5-2 2.6-2.7 1.1-0.6 2.4-1 3.7-1q1.4 0.1 2.7 0.7 1.1 0.4 2.3 0.6 1.2-0.3 2.4-0.8 1.4-0.5 3-0.6 0.2 0 0.3 0.1c1.1 0 2.2 0.3 3.2 0.8 0.9 0.5 1.8 1.2 2.4 2.1-1 0.5-1.9 1.3-2.4 2.3-0.6 1-0.9 2.1-0.9 3.3q0 1.3 0.5 2.5 0.6 1.3 1.6 2.2 0.8 0.8 2 1.3-0.3 0.7-0.5 1.3-0.7 1.5-1.6 2.9-0.9 1.3-2 2.4c-0.7 0.7-1.7 1.1-2.6 1.2q-1.3-0.1-2.5-0.6-1.2-0.5-2.5-0.6-1.4 0.1-2.7 0.6-1.1 0.5-2.3 0.6zm4.8-22.4q-0.1 0-0.3 0 0-0.3 0-0.5c0-1.6 0.6-3 1.6-4.2q0.9-1 2.1-1.5 1.1-0.6 2.4-0.7 0 0.3 0 0.6c0 1.5-0.6 3-1.6 4.1q-0.7 1-1.8 1.6-1.1 0.6-2.4 0.6z"/>
</svg>