<svg version="1.2" xmlns="http://www.w3.org/2000/svg" viewBox="0 0 14 14" width="14" height="14">
	<title>image</title>
	<style>
		.s0 { fill: none;stroke: #ffffff } 
	</style>
	<path id="Layer" class="s0" d="m12.6 9.9q0.4 0.3 0.4 0.7c0 0.9-1.2 1.9-1.4 2.1q-0.5 0.3-1.1 0.3-0.6 0-1.3-0.3c-2.7-1.2-6.8-5.2-7.9-7.8q-0.6-1.5 0-2.4c0.2-0.3 1.2-1.5 2.1-1.5q0.4 0 0.7 0.4c0.4 0.3 1.3 1.6 1.4 1.9 0.1 0.4-0.1 0.7-0.3 1-0.1 0.3-0.6 0.9-0.4 1.2 0.6 1.6 2.1 3 3.7 3.7 0.4 0.1 0.9-0.3 1.2-0.5 0.3-0.2 0.6-0.4 1-0.3 0.4 0.1 1.6 1.1 1.9 1.5z"/>
</svg>