<svg version="1.2" xmlns="http://www.w3.org/2000/svg" viewBox="0 0 14 14" width="14" height="14">
	<title>image</title>
	<defs>
		<clipPath clipPathUnits="userSpaceOnUse" id="cp1">
			<path d="m0 0h14v14h-14z"/>
		</clipPath>
	</defs>
	<style>
		.s0 { fill: #FFFFFF } 
	</style>
	<g id="Clip-Path" clip-path="url(#cp1)">
		<g id="Layer">
			<path id="Layer" class="s0" d="m12 7.5v5c0 0.8-0.7 1.5-1.5 1.5h-9c-0.8 0-1.5-0.7-1.5-1.5v-10c0-0.8 0.7-1.5 1.5-1.5h6c0.3 0 0.5 0.2 0.5 0.5 0 0.3-0.2 0.5-0.5 0.5h-6c-0.3 0-0.5 0.2-0.5 0.5v10c0 0.3 0.2 0.5 0.5 0.5h9c0.3 0 0.5-0.2 0.5-0.5v-5c0-0.3 0.2-0.5 0.5-0.5 0.3 0 0.5 0.2 0.5 0.5z"/>
			<path id="Layer" fill-rule="evenodd" class="s0" d="m13.4 3.3l-6.5 6.6q-0.1 0-0.2 0.1l-3 1q-0.1 0-0.2 0-0.1 0-0.2 0c-0.2-0.1-0.4-0.4-0.3-0.7l1-3q0.1-0.1 0.1-0.1l6.6-6.6c0.4-0.4 0.9-0.6 1.4-0.6 0.5 0 1 0.2 1.3 0.6 0.8 0.7 0.8 1.9 0 2.7zm-0.4-1.4q0-0.4-0.3-0.6c-0.3-0.4-0.9-0.4-1.3 0l-6.5 6.5-0.6 1.9 1.9-0.6 6.5-6.5q0.3-0.3 0.3-0.7z"/>
		</g>
	</g>
</svg>