<svg version="1.2" xmlns="http://www.w3.org/2000/svg" viewBox="0 0 60 60" width="60" height="60">
	<title>image</title>
	<style>
		.s0 { opacity: .2;fill: none;stroke: #3b5998;stroke-width: 1.5 } 
		.s1 { fill: #3b5998 } 
	</style>
	<path id="Layer" class="s0" d="m30 59.3c-16.2 0-29.3-13.1-29.3-29.3 0.1-16.2 13.1-29.2 29.3-29.2 16.2 0 29.3 13 29.3 29.2-0.1 16.2-13.1 29.3-29.3 29.3z"/>
	<path id="Layer" class="s1" d="m18.2 22.5c1.5-2.3 3.5-4.1 6-5.2 2.4-1.1 5.1-1.5 7.8-1.2 2.6 0.4 5.1 1.5 7.1 3.3 2.1 1.7 3.6 4 4.4 6.6 0.7 2.5 0.8 5.3 0 7.8-0.7 2.6-2.2 4.9-4.2 6.7-2 1.8-4.4 3-7.1 3.4v-9.8h3.3l0.6-4.1h-3.9v-2.6q0-0.5 0.1-0.9 0.2-0.4 0.5-0.8 0.4-0.3 0.8-0.4 0.4-0.2 0.9-0.1h1.8v-3.5q-1.6-0.2-3.2-0.2-1.1-0.1-2.1 0.3-1 0.4-1.8 1.2-0.8 0.8-1.1 1.8-0.4 1-0.3 2.1v3.1h-3.5v4.1h3.5v9.8c-3.3-0.5-6.3-2.2-8.4-4.8-2.2-2.5-3.4-5.7-3.4-9.1 0-2.7 0.8-5.3 2.2-7.5z"/>
</svg>