<svg version="1.2" xmlns="http://www.w3.org/2000/svg" viewBox="0 0 16 16" width="16" height="16">
	<title>image</title>
	<style>
		.s0 { opacity: .4;fill: #ffffff } 
		.s1 { fill: #ffffff } 
	</style>
	<path id="Layer" class="s0" d="m7.7 11.6c0 0.6-0.4 1-1 1h-4.4c-0.5 0-1-0.4-1-1 0-0.5 0.5-1 1-1h4.4c0.6 0 1 0.5 1 1z"/>
	<path id="Layer" class="s0" d="m13.3 5.1h-4.4c-0.5 0-1-0.5-1-1 0-0.6 0.5-1 1-1h4.4c0.6 0 1 0.4 1 1 0 0.5-0.4 1-1 1z"/>
	<path id="Layer" class="s1" d="m5.9 4.1c0 1.2-1 2.2-2.3 2.2-1.2 0-2.3-1-2.3-2.2 0-1.3 1.1-2.3 2.3-2.3 1.3 0 2.3 1 2.3 2.3z"/>
	<path id="Layer" class="s1" d="m14.3 11.6c0 1.2-1 2.3-2.3 2.3-1.2 0-2.3-1.1-2.3-2.3 0-1.2 1.1-2.3 2.3-2.3 1.3 0 2.3 1.1 2.3 2.3z"/>
</svg>