<svg version="1.2" xmlns="http://www.w3.org/2000/svg" viewBox="0 0 49 50" width="49" height="50">
	<title>image</title>
	<style>
		.s0 { opacity: .4;fill: #3b868f } 
		.s1 { fill: #3b868f } 
	</style>
	<path id="Layer" class="s0" d="m24.6 31.4c0 0.9-0.7 1.5-1.5 1.5h-6.6c-0.8 0-1.5-0.6-1.5-1.5 0-0.8 0.7-1.4 1.5-1.4h6.6c0.8 0 1.5 0.6 1.5 1.4z"/>
	<path id="Layer" class="s0" d="m33.5 21.9h-6.6c-0.8 0-1.5-0.7-1.5-1.5 0-0.8 0.7-1.5 1.5-1.5h6.6c0.8 0 1.5 0.7 1.5 1.5 0 0.8-0.7 1.5-1.5 1.5z"/>
	<path id="Layer" class="s1" d="m21.9 20.4c0 1.8-1.6 3.4-3.5 3.4-1.9 0-3.4-1.6-3.4-3.4 0-1.9 1.5-3.4 3.4-3.4 1.9 0 3.5 1.5 3.5 3.4z"/>
	<path id="Layer" class="s1" d="m35 31.4c0 1.9-1.5 3.4-3.4 3.4-1.9 0-3.5-1.5-3.5-3.4 0-1.9 1.6-3.4 3.5-3.4 1.9 0 3.4 1.5 3.4 3.4z"/>
</svg>