<svg version="1.2" xmlns="http://www.w3.org/2000/svg" viewBox="0 0 16 16" width="16" height="16">
	<title>image</title>
	<style>
		.s0 { fill: none;stroke: #3b868f;stroke-width: 1.2 } 
	</style>
	<path id="Layer" class="s0" d="m4.5 3.3c0-1 0.7-1.7 1.7-1.7 0.9 0 1.7 0.7 1.7 1.7"/>
	<path id="Layer" class="s0" d="m7.9 3.3c0-1 0.7-1.7 1.6-1.7 1 0 1.7 0.7 1.7 1.7"/>
	<path id="Layer" class="s0" d="m7.9 3.8v11"/>
	<path id="Layer" class="s0" d="m12.5 15h-9.3c-0.8 0-1.4-0.7-1.4-1.5v-8.2c0-0.8 0.6-1.5 1.4-1.5h9.3c0.8 0 1.5 0.7 1.5 1.5v8.2c0 0.8-0.7 1.5-1.5 1.5z"/>
	<path id="Layer" class="s0" d="m1.8 7.8h12.2"/>
</svg>