<svg version="1.2" xmlns="http://www.w3.org/2000/svg" viewBox="0 0 60 60" width="60" height="60">
	<title>image</title>
	<style>
		.s0 { opacity: .2;fill: none;stroke: #dd4b39;stroke-width: 1.5 } 
		.s1 { fill: #dd4b39 } 
	</style>
	<path id="Layer" class="s0" d="m30 59.3c-16.2 0-29.3-13.1-29.3-29.3 0.1-16.2 13.1-29.2 29.3-29.2 16.2 0 29.3 13 29.3 29.2-0.1 16.2-13.1 29.3-29.3 29.3z"/>
	<path id="Layer" class="s1" d="m41.2 27.8q0.3 1.1 0.3 2.2c0 7.6-5.5 12-11.5 12-1.9 0-3.8-0.5-5.5-1.4-1.8-0.9-3.2-2.2-4.3-3.8-1.1-1.6-1.8-3.4-2.1-5.3-0.2-2 0-3.9 0.7-5.7 0.7-1.9 1.8-3.5 3.2-4.8 1.5-1.3 3.2-2.2 5.1-2.6 1.9-0.5 3.9-0.5 5.7-0.1 1.9 0.5 3.7 1.4 5.1 2.7l-3.5 3.5c-1.2-1.1-2.8-1.6-4.4-1.6-1.8 0-3.6 0.8-4.9 2.1-1.3 1.3-2.1 3.1-2.1 5 0 1.8 0.8 3.6 2.1 5 1.3 1.3 3.1 2 4.9 2.1 3.4 0 5.9-1.7 6.5-4.7h-6.5v-4.6z"/>
</svg>