<svg width="232" height="135" viewBox="0 0 232 135" fill="none" xmlns="http://www.w3.org/2000/svg">
<path d="M126.384 46.7553C129.345 39.9766 142.547 5.17792 146.299 2.57652C147.84 1.55097 149.641 1.55097 150.502 1.55097C151.357 1.55097 151.872 1.38088 151.872 0.780553C151.872 0.18023 151.187 0.00512695 150.071 0.00512695C147.5 0.00512695 143.473 0.265277 142.017 0.265277C140.902 0.265277 137.3 0.00512695 133.017 0.00512695C131.386 0.00512695 130.616 0.180222 130.616 0.86559C130.616 1.46591 131.301 1.55097 132.077 1.55097C133.187 1.55097 134.473 1.63601 135.504 1.97619C136.274 2.23133 136.614 2.9217 136.614 3.60707C136.614 4.37748 136.259 5.65817 135.844 6.77877C134.613 10.1156 127.639 29.0708 123.492 39.4614L126.384 46.7553Z" fill="#747474"/>
<path d="M112.701 60.7727C114.332 64.7998 114.847 65.9955 115.958 65.9955C117.159 65.9955 117.674 64.6298 119.9 59.6571C120.34 58.6565 120.896 57.3808 121.561 55.86C117.584 45.8096 113.542 36.0694 109.545 25.5187L104.587 13.007L104.777 12.932L103.872 10.5457C102.671 7.459 101.901 5.06271 101.901 3.94711C101.901 3.1767 102.156 2.57637 102.756 2.14614C103.446 1.63087 104.727 1.54583 106.103 1.54583C106.873 1.54583 107.388 1.37573 107.388 0.775411C107.388 0.175088 106.443 0 105.417 0C101.135 0 97.0179 0.260134 94.8768 0.260134C91.8802 0.260134 86.9925 0 82.4501 0C81.1644 0 80.2239 0.0900423 80.2239 0.775411C80.2239 1.29069 80.479 1.54583 81.2494 1.54583C81.9398 1.54583 83.3055 1.54583 84.5962 1.88601C87.6829 2.74647 89.1337 3.68697 91.1097 8.39951L112.701 60.7727Z" fill="#010101"/>
<path d="M27.1466 86.9039H32.5745V87.1541H32.3444C31.9542 87.1541 31.564 87.2741 31.1788 87.5093C30.7886 87.7444 30.4634 88.0996 30.2083 88.5698L24.205 101.827C23.4246 103.503 23.0094 104.608 22.9644 105.154H22.7343L15.0551 88.6048C14.805 88.1246 14.4848 87.7644 14.0946 87.5193C13.7044 87.2791 13.3092 87.1541 12.894 87.1541H12.6938V86.9039H20.7482V87.1541H20.5481C20.1729 87.1541 19.8927 87.2691 19.7126 87.4993C19.5375 87.7294 19.4525 87.9445 19.4525 88.1446C19.4525 88.3497 19.4875 88.5498 19.5575 88.7499L23.8599 99.2256L28.3222 88.7499C28.4123 88.5348 28.4573 88.3297 28.4573 88.1346C28.4573 87.9395 28.3673 87.7294 28.1872 87.4993C28.0121 87.2691 27.7369 87.1541 27.3617 87.1541H27.1316V86.9039H27.1466Z" fill="#010101"/>
<path d="M36.2708 97.0444C36.2708 94.6031 37.0812 92.677 38.7121 91.2513C40.3429 89.8205 42.5141 89.1051 45.2256 89.1051C47.942 89.1051 50.1182 89.8205 51.7591 91.2513C53.4 92.677 54.2204 94.6081 54.2204 97.0444C54.2204 99.4757 53.4 101.407 51.7591 102.837C50.1182 104.263 47.947 104.974 45.2456 104.974C42.5391 104.974 40.373 104.263 38.7321 102.837C37.0912 101.412 36.2708 99.4807 36.2708 97.0444ZM40.1478 97.0444C40.1478 99.1705 40.6081 100.856 41.5236 102.097C42.4441 103.333 43.6797 103.953 45.2256 103.953C46.7714 103.953 48.0071 103.338 48.9276 102.097C49.848 100.856 50.3133 99.1705 50.3133 97.0444C50.3133 94.9132 49.848 93.2223 48.9276 91.9816C48.0121 90.741 46.7764 90.1156 45.2256 90.1156C43.6847 90.1156 42.4491 90.736 41.5236 91.9816C40.6081 93.2273 40.1478 94.9132 40.1478 97.0444Z" fill="#010101"/>
<path d="M81.2539 89.6853H81.0788C80.6886 89.6853 80.3184 89.7853 79.9632 89.9854C79.608 90.1905 79.3428 90.4807 79.1728 90.8709L75.4307 102.357C75.1606 103.168 75.0255 103.938 75.0255 104.658C75.0255 104.748 75.0255 104.833 75.0255 104.918H74.7954L69.8527 94.9331L66.4259 102.352C66.0357 103.248 65.8406 104.103 65.8406 104.913H65.6105L60.2126 90.966C60.0325 90.5457 59.7673 90.2256 59.4221 90.0054C59.0719 89.7853 58.6967 89.6703 58.2965 89.6703H58.0864V89.4201H65.2052V89.6703H65.0051C64.685 89.6703 64.4498 89.7703 64.2947 89.9604C64.1397 90.1555 64.0646 90.3406 64.0646 90.5107C64.0646 90.6758 64.0996 90.8609 64.1697 91.061L66.8061 97.9497L70.8083 89.0599H71.0084L75.4508 98.0047L77.5019 91.061C77.667 90.3907 77.5319 89.9454 77.0966 89.7353C76.9766 89.6903 76.8415 89.6603 76.6914 89.6603H76.4913V89.4101H81.2539V89.6853Z" fill="#010101"/>
<path d="M85.4128 102.567C85.4128 101.462 85.653 100.526 86.1432 99.7557H86.3533C86.3333 99.8758 86.3233 99.9808 86.3233 100.081C86.3233 101.116 86.6885 102.027 87.4289 102.802C88.1643 103.573 89.1949 103.958 90.5156 103.958C91.4611 103.958 92.1865 103.738 92.7068 103.303C93.222 102.862 93.4772 102.377 93.4772 101.832C93.4772 101.287 93.3271 100.856 93.0269 100.531C92.7368 100.196 92.2515 99.8107 91.5761 99.3755L87.9792 97.0943C86.4584 96.1488 85.698 94.9331 85.698 93.4473C85.698 93.2972 85.703 93.1371 85.718 92.9671C85.8231 91.7664 86.2883 90.8259 87.1138 90.1405C87.9392 89.4502 88.9097 89.11 90.0303 89.11C91.1559 89.11 92.3416 89.19 93.5922 89.3401H94.968L94.6128 92.6869H94.3827C94.3827 91.8965 94.1075 91.2711 93.5572 90.8109C93.0069 90.3506 92.2765 90.1205 91.366 90.1205C90.4606 90.1205 89.7502 90.3156 89.2299 90.6958C88.7096 91.081 88.4495 91.5813 88.4495 92.2067C88.4495 92.7169 88.7046 93.1522 89.2099 93.5174C89.41 93.6724 89.7051 93.8675 90.0954 94.1027L94.1175 96.594C95.5083 97.4345 96.2036 98.6001 96.2036 100.086C96.2036 101.657 95.6483 102.867 94.5377 103.713C93.4321 104.563 92.0014 104.984 90.2454 104.984C89.1648 104.984 88.2143 104.858 87.3789 104.608C86.5484 104.353 85.9431 104.028 85.5529 103.638C85.4629 103.328 85.4128 102.972 85.4128 102.567Z" fill="#010101"/>
<path d="M136.121 87.154H135.891C135.466 87.154 135.041 87.2841 134.611 87.5392C134.18 87.7893 133.875 88.1495 133.695 88.6248L129.433 102.287C129.148 103.218 129.008 104.078 129.008 104.874C129.008 104.959 129.008 105.034 129.008 105.104H128.747L123.225 92.8571L119.222 102.287C118.832 103.268 118.627 104.203 118.607 105.099H118.357L112.304 88.6198C112.079 88.1295 111.768 87.7593 111.363 87.5142C110.958 87.2741 110.548 87.149 110.122 87.149H109.912V86.8989H117.647V87.149H117.416C117.061 87.149 116.796 87.2641 116.616 87.4942C116.441 87.7243 116.356 87.9394 116.356 88.1395C116.356 88.3447 116.391 88.5347 116.461 88.7248L119.578 97.5396L124.165 86.4937L124.395 86.5137L129.438 97.6447L131.969 88.7248C132.014 88.5347 132.044 88.3447 132.044 88.1395C132.044 87.9394 131.964 87.7243 131.804 87.4942C131.644 87.2641 131.379 87.149 131.014 87.149H130.784V86.8989H136.131V87.154H136.121Z" fill="#010101"/>
<path d="M139.822 97.0444C139.822 94.6031 140.633 92.677 142.264 91.2513C143.894 89.8205 146.066 89.1051 148.777 89.1051C151.494 89.1051 153.67 89.8205 155.311 91.2513C156.951 92.677 157.772 94.6081 157.772 97.0444C157.772 99.4757 156.951 101.407 155.311 102.837C153.67 104.263 151.499 104.974 148.797 104.974C146.091 104.974 143.924 104.263 142.284 102.837C140.638 101.412 139.822 99.4807 139.822 97.0444ZM143.699 97.0444C143.699 99.1705 144.16 100.856 145.075 102.097C145.996 103.333 147.231 103.953 148.777 103.953C150.323 103.953 151.559 103.338 152.479 102.097C153.4 100.856 153.865 99.1705 153.865 97.0444C153.865 94.9132 153.4 93.2223 152.479 91.9816C151.564 90.741 150.328 90.1156 148.777 90.1156C147.236 90.1156 146.001 90.736 145.075 91.9816C144.16 93.2273 143.699 94.9132 143.699 97.0444Z" fill="#010101"/>
<path d="M169.372 90.4807H168.562V103.047C168.562 103.453 168.702 103.778 168.977 104.028C169.262 104.273 169.582 104.393 169.937 104.393H170.217V104.643H163.244V104.393H163.544C163.909 104.393 164.224 104.268 164.494 104.018C164.759 103.763 164.89 103.443 164.89 103.068V91.011C164.89 90.6358 164.754 90.3207 164.494 90.0705C164.229 89.8154 163.919 89.6853 163.569 89.6853H163.244V89.4352H171.018C172.539 89.4352 173.814 89.7303 174.855 90.3207C176.001 90.981 176.576 92.0716 176.576 93.5924C176.576 94.5729 176.281 95.4534 175.69 96.2388C175.1 97.0243 174.22 97.4995 173.054 97.6646C173.514 97.8197 173.964 98.1098 174.41 98.5301C174.855 98.9553 175.21 99.3855 175.485 99.8208C176.026 100.786 176.591 101.672 177.186 102.477C177.776 103.278 178.252 103.798 178.612 104.028C178.977 104.263 179.422 104.383 179.948 104.383V104.633H177.821C176.416 104.633 175.34 104.468 174.59 104.133C173.839 103.793 173.169 103.153 172.579 102.207C171.663 100.746 171.093 99.6006 170.878 98.7552C170.673 98.2499 170.433 97.8697 170.147 97.6196C169.867 97.3644 169.607 97.2194 169.357 97.1793V96.9792H169.992C171.423 96.9592 172.299 96.1138 172.629 94.4379C172.689 94.1877 172.724 93.9676 172.724 93.7825C172.724 93.5974 172.714 93.3373 172.694 93.0121C172.679 92.6869 172.574 92.3117 172.384 91.8965C172.188 91.4813 171.938 91.1811 171.643 91.001C171.113 90.6759 170.573 90.5057 170.017 90.4907C169.817 90.4857 169.607 90.4807 169.372 90.4807Z" fill="#010101"/>
<path d="M183.289 104.643V104.393H183.589C183.979 104.393 184.3 104.268 184.56 104.018C184.825 103.763 184.955 103.443 184.955 103.068V91.031C184.955 90.6658 184.82 90.3507 184.55 90.0805C184.28 89.8154 183.959 89.6853 183.589 89.6853H183.289V89.4352H190.333V89.6853H190.033C189.642 89.6853 189.312 89.8154 189.042 90.0705C188.772 90.3207 188.637 90.6408 188.637 91.031V103.633H191.679C192.719 103.613 193.605 103.288 194.335 102.652C195.065 102.022 195.596 101.131 195.931 99.9859H196.211L195.22 104.643H183.289Z" fill="#010101"/>
<path d="M215.675 91.4514C217.211 92.7921 217.977 94.6581 217.977 97.0394C217.977 99.4257 217.206 101.287 215.675 102.637C214.14 103.978 212.008 104.649 209.287 104.649H200.722V104.398H201.058C201.448 104.398 201.778 104.263 202.048 103.993C202.318 103.723 202.458 103.398 202.473 103.023V91.0162C202.438 90.641 202.283 90.3258 202.013 90.0757C201.743 89.8205 201.413 89.6905 201.023 89.6905H200.722V89.4403H209.287C212.008 89.4353 214.14 90.1107 215.675 91.4514ZM208.982 103.633C210.573 103.633 211.828 103.048 212.744 101.882C213.664 100.716 214.13 99.1055 214.13 97.0444C214.13 94.9833 213.664 93.3625 212.744 92.1868C211.828 91.0162 210.573 90.4259 208.982 90.4259H206.115V103.633H208.982Z" fill="#010101"/>
<path d="M6.09746 123.699H7.14803L4.1064 132.154H3.13588L0.104248 123.699H1.1448L3.08585 129.172C3.30597 129.797 3.48606 130.408 3.61613 131.008C3.75621 130.383 3.93631 129.757 4.15643 129.132L6.09746 123.699Z" fill="#747474"/>
<path d="M15.4777 128.972C15.4777 130.007 15.2175 130.818 14.6973 131.398C14.182 131.978 13.4666 132.263 12.5511 132.263C11.9808 132.263 11.4755 132.133 11.0403 131.868C10.6001 131.603 10.2599 131.223 10.0197 130.723C9.78461 130.222 9.66455 129.637 9.66455 128.972C9.66455 127.946 9.91969 127.141 10.435 126.565C10.9502 125.99 11.6656 125.7 12.5811 125.7C13.4716 125.7 14.177 125.995 14.6973 126.585C15.2175 127.176 15.4777 127.971 15.4777 128.972ZM10.6551 128.972C10.6551 129.782 10.8152 130.402 11.1353 130.828C11.4605 131.253 11.9408 131.463 12.5761 131.463C13.2015 131.463 13.6767 131.253 14.0019 130.838C14.327 130.417 14.4921 129.792 14.4921 128.972C14.4921 128.176 14.327 127.566 14.0019 127.146C13.6717 126.725 13.1965 126.51 12.5611 126.51C11.9258 126.51 11.4505 126.72 11.1353 127.136C10.8102 127.551 10.6551 128.161 10.6551 128.972Z" fill="#747474"/>
<path d="M24.1809 132.153L23.0253 128.431C22.9453 128.211 22.8102 127.696 22.6101 126.891H22.5701C22.415 127.566 22.2799 128.086 22.1649 128.441L20.9642 132.153H19.8586L18.1277 125.815H19.1282C19.5384 127.406 19.8486 128.617 20.0687 129.452C20.2838 130.287 20.4039 130.848 20.4339 131.128H20.4839C20.524 130.913 20.589 130.633 20.6841 130.282C20.7791 129.927 20.8642 129.652 20.9342 129.447L22.0898 125.81H23.1304L24.266 129.447C24.4811 130.107 24.6262 130.663 24.7062 131.113H24.7462C24.7663 130.973 24.8063 130.763 24.8713 130.478C24.9414 130.187 25.3416 128.632 26.082 125.81H27.0725L25.3216 132.148H24.1809V132.153Z" fill="#747474"/>
<path d="M32.7355 132.268C31.805 132.268 31.0696 131.983 30.5243 131.413C29.984 130.843 29.7139 130.052 29.7139 129.037C29.7139 128.016 29.964 127.206 30.4643 126.61C30.9695 126.005 31.6449 125.705 32.4954 125.705C33.2858 125.705 33.9111 125.965 34.3714 126.485C34.8366 127.006 35.0717 127.696 35.0717 128.546V129.162H30.7044C30.7244 129.907 30.9145 130.473 31.2647 130.863C31.6249 131.248 32.1302 131.438 32.7755 131.438C33.4559 131.438 34.1312 131.298 34.7966 131.013V131.868C34.4564 132.013 34.1312 132.118 33.8261 132.178C33.5309 132.233 33.1657 132.268 32.7355 132.268ZM32.4754 126.505C31.9651 126.505 31.5599 126.67 31.2547 127.006C30.9545 127.336 30.7794 127.791 30.7244 128.381H34.0362C34.0362 127.776 33.9011 127.316 33.631 126.996C33.3658 126.665 32.9806 126.505 32.4754 126.505Z" fill="#747474"/>
<path d="M42.8576 131.298H42.8075C42.3673 131.943 41.7069 132.269 40.8265 132.269C39.991 132.269 39.3457 131.988 38.8854 131.423C38.4252 130.853 38.1951 130.047 38.1951 129.007C38.1951 127.961 38.4252 127.146 38.8854 126.566C39.3507 125.99 39.996 125.7 40.8265 125.7C41.6819 125.7 42.3373 126.01 42.7975 126.641H42.8826L42.8426 126.18L42.8125 125.73V123.154H43.7831V132.154H43.0026L42.8576 131.298ZM40.9415 131.463C41.6019 131.463 42.0772 131.288 42.3673 130.933C42.6575 130.573 42.8075 129.992 42.8075 129.202V129.002C42.8075 128.101 42.6575 127.456 42.3573 127.076C42.0571 126.696 41.5819 126.5 40.9315 126.5C40.3712 126.5 39.936 126.721 39.6408 127.156C39.3407 127.596 39.1906 128.211 39.1906 129.012C39.1906 129.817 39.3407 130.428 39.6408 130.848C39.936 131.263 40.3712 131.463 40.9415 131.463Z" fill="#747474"/>
<path d="M54.6197 131.473C54.7848 131.473 54.9499 131.463 55.11 131.443C55.2701 131.418 55.3951 131.388 55.4852 131.358V132.088C55.3801 132.143 55.225 132.183 55.0249 132.213C54.8198 132.248 54.6397 132.263 54.4846 132.263C53.254 132.263 52.6386 131.618 52.6386 130.322V126.56H51.7332V126.09L52.6386 125.695L53.0439 124.339H53.5941V125.81H55.4401V126.56H53.5941V130.282C53.5941 130.668 53.6842 130.958 53.8643 131.168C54.0544 131.378 54.3045 131.473 54.6197 131.473Z" fill="#747474"/>
<path d="M64.0612 128.972C64.0612 130.007 63.801 130.818 63.2808 131.398C62.7655 131.978 62.0501 132.263 61.1346 132.263C60.5643 132.263 60.059 132.133 59.6238 131.868C59.1835 131.603 58.8434 131.223 58.6032 130.723C58.3681 130.222 58.248 129.637 58.248 128.972C58.248 127.946 58.5032 127.141 59.0185 126.565C59.5337 125.99 60.2491 125.7 61.1646 125.7C62.0551 125.7 62.7605 125.995 63.2808 126.585C63.801 127.176 64.0612 127.971 64.0612 128.972ZM59.2336 128.972C59.2336 129.782 59.3937 130.402 59.7138 130.828C60.039 131.253 60.5193 131.463 61.1546 131.463C61.7799 131.463 62.2552 131.253 62.5804 130.838C62.9056 130.417 63.0706 129.792 63.0706 128.972C63.0706 128.176 62.9056 127.566 62.5804 127.146C62.2502 126.725 61.7749 126.51 61.1396 126.51C60.5043 126.51 60.029 126.72 59.7138 127.136C59.3937 127.551 59.2336 128.161 59.2336 128.972Z" fill="#747474"/>
<path d="M79.9924 127.911C79.9924 128.997 79.7723 129.897 79.3371 130.623C78.9069 131.338 78.2965 131.823 77.5011 132.073L79.5122 134.169H78.0864L76.4405 132.263L76.1154 132.273C74.8697 132.273 73.9092 131.893 73.2288 131.138C72.5534 130.372 72.2183 129.297 72.2183 127.906C72.2183 126.53 72.5584 125.465 73.2388 124.704C73.9192 123.949 74.8797 123.569 76.1254 123.569C77.341 123.569 78.2865 123.954 78.9719 124.724C79.6473 125.49 79.9924 126.555 79.9924 127.911ZM73.2588 127.911C73.2588 129.057 73.499 129.927 73.9892 130.517C74.4795 131.108 75.1899 131.403 76.1154 131.403C77.0559 131.403 77.7612 131.113 78.2415 130.527C78.7218 129.937 78.9619 129.067 78.9619 127.911C78.9619 126.78 78.7218 125.92 78.2415 125.335C77.7662 124.744 77.0659 124.449 76.1254 124.449C75.1949 124.449 74.4795 124.744 73.9892 125.335C73.499 125.925 73.2588 126.785 73.2588 127.911Z" fill="#747474"/>
<path d="M84.4786 125.815V129.922C84.4786 130.443 84.5936 130.833 84.8338 131.088C85.0689 131.338 85.4391 131.463 85.9394 131.463C86.5997 131.463 87.08 131.283 87.3901 130.923C87.7003 130.563 87.8604 129.972 87.8604 129.152V125.815H88.8209V132.153H88.0305L87.8854 131.298H87.8354C87.6403 131.608 87.3701 131.848 87.025 132.018C86.6748 132.183 86.2795 132.269 85.8243 132.269C85.0539 132.269 84.4736 132.088 84.0934 131.728C83.7082 131.363 83.5181 130.773 83.5181 129.967V125.82H84.4786V125.815Z" fill="#747474"/>
<path d="M96.5802 132.154L96.3901 131.248H96.3501C96.0299 131.653 95.7148 131.923 95.3996 132.058C95.0894 132.199 94.6942 132.269 94.224 132.269C93.5986 132.269 93.1034 132.109 92.7432 131.788C92.388 131.463 92.2129 131.003 92.2129 130.403C92.2129 129.127 93.2384 128.452 95.2895 128.392L96.3651 128.362V127.966C96.3651 127.466 96.2551 127.101 96.0399 126.861C95.8248 126.626 95.4846 126.506 95.0194 126.506C94.4891 126.506 93.8938 126.671 93.2284 126.996L92.9283 126.255C93.2384 126.09 93.5786 125.96 93.9488 125.86C94.324 125.765 94.6992 125.715 95.0744 125.715C95.8298 125.715 96.3901 125.885 96.7503 126.225C97.1155 126.561 97.3006 127.096 97.3006 127.831V132.154H96.5802ZM94.4141 131.473C95.0094 131.473 95.4796 131.313 95.8198 130.983C96.165 130.658 96.3401 130.197 96.3401 129.607V129.032L95.3796 129.072C94.6142 129.102 94.0589 129.217 93.7237 129.427C93.3885 129.637 93.2234 129.962 93.2234 130.408C93.2234 130.758 93.3285 131.018 93.5336 131.198C93.7437 131.388 94.0389 131.473 94.4141 131.473Z" fill="#747474"/>
<path d="M102.082 132.153H101.121V123.159H102.082V132.153Z" fill="#747474"/>
<path d="M106.923 132.154H105.962V125.815H106.923V132.154ZM105.882 124.094C105.882 123.879 105.932 123.719 106.037 123.614C106.147 123.509 106.283 123.459 106.443 123.459C106.593 123.459 106.728 123.509 106.838 123.614C106.953 123.719 107.013 123.879 107.013 124.094C107.013 124.309 106.953 124.474 106.838 124.584C106.728 124.69 106.593 124.74 106.443 124.74C106.283 124.74 106.147 124.69 106.037 124.584C105.932 124.474 105.882 124.314 105.882 124.094Z" fill="#747474"/>
<path d="M112.845 131.473C113.01 131.473 113.175 131.463 113.335 131.443C113.495 131.418 113.62 131.388 113.71 131.358V132.088C113.605 132.143 113.45 132.183 113.25 132.213C113.045 132.248 112.865 132.263 112.709 132.263C111.479 132.263 110.863 131.618 110.863 130.322V126.56H109.958V126.09L110.863 125.695L111.269 124.339H111.819V125.81H113.665V126.56H111.819V130.282C111.819 130.668 111.909 130.958 112.089 131.168C112.284 131.378 112.534 131.473 112.845 131.473Z" fill="#747474"/>
<path d="M115.818 125.815H116.849L118.235 129.432C118.54 130.252 118.725 130.848 118.795 131.213H118.845C118.89 131.018 118.995 130.688 119.155 130.212C119.315 129.732 119.836 128.266 120.731 125.815H121.752L119.03 133.029C118.76 133.744 118.44 134.25 118.08 134.55C117.724 134.845 117.284 135 116.754 135C116.464 135 116.174 134.965 115.888 134.895V134.135C116.099 134.175 116.334 134.195 116.599 134.195C117.259 134.195 117.729 133.824 118.005 133.089L118.36 132.183L115.818 125.815Z" fill="#747474"/>
<path d="M136.119 132.154H135.138V128.171H130.686V132.154H129.695V123.699H130.686V127.296H135.138V123.699H136.119V132.154Z" fill="#747474"/>
<path d="M145.604 128.972C145.604 130.007 145.344 130.818 144.823 131.398C144.308 131.978 143.593 132.263 142.677 132.263C142.107 132.263 141.602 132.133 141.166 131.868C140.726 131.603 140.386 131.223 140.146 130.723C139.911 130.222 139.791 129.637 139.791 128.972C139.791 127.946 140.046 127.141 140.561 126.565C141.076 125.99 141.792 125.7 142.707 125.7C143.598 125.7 144.303 125.995 144.823 126.585C145.344 127.176 145.604 127.971 145.604 128.972ZM140.776 128.972C140.776 129.782 140.936 130.402 141.256 130.828C141.581 131.253 142.062 131.463 142.697 131.463C143.322 131.463 143.798 131.253 144.123 130.838C144.448 130.417 144.613 129.792 144.613 128.972C144.613 128.176 144.448 127.566 144.123 127.146C143.793 126.725 143.317 126.51 142.682 126.51C142.047 126.51 141.571 126.72 141.256 127.136C140.936 127.551 140.776 128.161 140.776 128.972Z" fill="#747474"/>
<path d="M157.213 132.153V128.036C157.213 127.531 157.103 127.151 156.878 126.901C156.663 126.645 156.328 126.515 155.878 126.515C155.277 126.515 154.837 126.69 154.552 127.036C154.267 127.376 154.127 127.906 154.127 128.622V132.153H153.166V128.036C153.166 127.531 153.056 127.151 152.841 126.901C152.626 126.645 152.291 126.515 151.83 126.515C151.225 126.515 150.785 126.695 150.505 127.056C150.224 127.416 150.089 128.011 150.089 128.827V132.153H149.129V125.815H149.909L150.054 126.68H150.104C150.285 126.375 150.535 126.135 150.865 125.96C151.2 125.79 151.57 125.7 151.98 125.7C152.966 125.7 153.611 126.06 153.921 126.776H153.962C154.157 126.44 154.432 126.18 154.787 125.995C155.147 125.8 155.557 125.705 156.018 125.705C156.733 125.705 157.268 125.89 157.623 126.255C157.984 126.625 158.164 127.211 158.164 128.016V132.153H157.213Z" fill="#747474"/>
<path d="M164.663 132.268C163.733 132.268 162.998 131.983 162.452 131.413C161.912 130.843 161.642 130.052 161.642 129.037C161.642 128.016 161.892 127.206 162.392 126.61C162.898 126.005 163.573 125.705 164.423 125.705C165.214 125.705 165.839 125.965 166.299 126.485C166.765 127.006 167 127.696 167 128.546V129.162H162.632C162.652 129.907 162.842 130.473 163.193 130.863C163.553 131.248 164.058 131.438 164.704 131.438C165.384 131.438 166.059 131.298 166.725 131.013V131.868C166.384 132.013 166.059 132.118 165.754 132.178C165.454 132.233 165.089 132.268 164.663 132.268ZM164.398 126.505C163.888 126.505 163.483 126.67 163.178 127.006C162.878 127.336 162.702 127.791 162.647 128.381H165.959C165.959 127.776 165.824 127.316 165.554 126.996C165.294 126.665 164.909 126.505 164.398 126.505Z" fill="#747474"/>
<path d="M180.314 129.902C180.314 130.648 180.043 131.228 179.503 131.643C178.968 132.059 178.237 132.269 177.312 132.269C176.301 132.269 175.531 132.139 175.001 131.883V130.933C175.346 131.078 175.721 131.193 176.126 131.278C176.537 131.363 176.942 131.403 177.347 131.403C177.997 131.403 178.493 131.283 178.828 131.038C179.163 130.788 179.328 130.443 179.328 129.997C179.328 129.707 179.268 129.467 179.153 129.277C179.033 129.087 178.833 128.922 178.558 128.767C178.288 128.607 177.867 128.427 177.307 128.226C176.517 127.941 175.946 127.611 175.606 127.226C175.271 126.836 175.106 126.335 175.106 125.715C175.106 125.065 175.346 124.545 175.836 124.164C176.326 123.774 176.977 123.579 177.787 123.579C178.628 123.579 179.403 123.734 180.113 124.049L179.803 124.905C179.108 124.615 178.433 124.464 177.772 124.464C177.252 124.464 176.847 124.575 176.552 124.8C176.261 125.025 176.111 125.33 176.111 125.725C176.111 126.015 176.161 126.255 176.266 126.446C176.376 126.636 176.562 126.806 176.817 126.966C177.072 127.121 177.467 127.291 177.992 127.476C178.873 127.796 179.483 128.136 179.818 128.497C180.143 128.857 180.314 129.327 180.314 129.902Z" fill="#747474"/>
<path d="M186.416 132.268C185.485 132.268 184.75 131.983 184.204 131.413C183.664 130.843 183.394 130.052 183.394 129.037C183.394 128.016 183.644 127.206 184.144 126.61C184.65 126.005 185.325 125.705 186.176 125.705C186.966 125.705 187.591 125.965 188.052 126.485C188.517 127.006 188.752 127.696 188.752 128.546V129.162H184.385C184.405 129.907 184.595 130.473 184.945 130.863C185.305 131.248 185.81 131.438 186.456 131.438C187.136 131.438 187.811 131.298 188.477 131.013V131.868C188.137 132.013 187.811 132.118 187.506 132.178C187.206 132.233 186.841 132.268 186.416 132.268ZM186.151 126.505C185.64 126.505 185.235 126.67 184.93 127.006C184.63 127.336 184.455 127.791 184.4 128.381H187.711C187.711 127.776 187.576 127.316 187.306 126.996C187.046 126.665 186.661 126.505 186.151 126.505Z" fill="#747474"/>
<path d="M195.117 125.7C195.392 125.7 195.647 125.725 195.877 125.775L195.742 126.66C195.477 126.605 195.247 126.575 195.042 126.575C194.532 126.575 194.096 126.786 193.731 127.201C193.371 127.616 193.191 128.136 193.191 128.752V132.153H192.23V125.815H193.021L193.126 126.991H193.176C193.406 126.575 193.686 126.255 194.021 126.03C194.357 125.815 194.722 125.7 195.117 125.7Z" fill="#747474"/>
<path d="M200.296 132.153L197.89 125.815H198.92L200.286 129.577C200.591 130.453 200.771 131.023 200.826 131.288H200.866C200.906 131.078 201.036 130.658 201.261 130.017C201.492 129.377 201.997 127.981 202.782 125.815H203.813L201.412 132.153H200.296Z" fill="#747474"/>
<path d="M207.644 132.154H206.684V125.815H207.644V132.154ZM206.604 124.094C206.604 123.879 206.654 123.719 206.759 123.614C206.869 123.509 207.004 123.459 207.164 123.459C207.314 123.459 207.449 123.509 207.559 123.614C207.674 123.719 207.734 123.879 207.734 124.094C207.734 124.309 207.674 124.474 207.559 124.584C207.449 124.69 207.314 124.74 207.164 124.74C207.004 124.74 206.869 124.69 206.759 124.584C206.654 124.474 206.604 124.314 206.604 124.094Z" fill="#747474"/>
<path d="M214.061 132.268C213.146 132.268 212.43 131.988 211.925 131.423C211.425 130.863 211.175 130.062 211.175 129.027C211.175 127.966 211.43 127.146 211.935 126.565C212.45 125.99 213.176 125.7 214.126 125.7C214.431 125.7 214.731 125.735 215.032 125.805C215.337 125.865 215.577 125.945 215.752 126.035L215.462 126.846C215.247 126.761 215.012 126.695 214.761 126.635C214.511 126.58 214.286 126.55 214.096 126.55C212.81 126.55 212.17 127.371 212.17 129.012C212.17 129.792 212.325 130.387 212.64 130.803C212.961 131.218 213.426 131.428 214.036 131.428C214.561 131.428 215.107 131.313 215.662 131.083V131.928C215.232 132.153 214.696 132.268 214.061 132.268Z" fill="#747474"/>
<path d="M221.679 132.268C220.748 132.268 220.013 131.983 219.467 131.413C218.927 130.843 218.657 130.052 218.657 129.037C218.657 128.016 218.907 127.206 219.407 126.61C219.913 126.005 220.588 125.705 221.438 125.705C222.229 125.705 222.854 125.965 223.314 126.485C223.78 127.006 224.015 127.696 224.015 128.546V129.162H219.648C219.668 129.907 219.858 130.473 220.208 130.863C220.568 131.248 221.073 131.438 221.719 131.438C222.399 131.438 223.074 131.298 223.74 131.013V131.868C223.4 132.013 223.074 132.118 222.769 132.178C222.474 132.233 222.109 132.268 221.679 132.268ZM221.418 126.505C220.908 126.505 220.503 126.67 220.198 127.006C219.898 127.336 219.723 127.791 219.668 128.381H222.979C222.979 127.776 222.844 127.316 222.574 126.996C222.309 126.665 221.924 126.505 221.418 126.505Z" fill="#747474"/>
<path d="M231.581 130.422C231.581 131.013 231.356 131.468 230.915 131.788C230.475 132.108 229.865 132.268 229.069 132.268C228.229 132.268 227.574 132.138 227.098 131.873V130.978C227.404 131.138 227.729 131.263 228.079 131.353C228.434 131.438 228.769 131.478 229.089 131.478C229.59 131.478 229.975 131.398 230.245 131.238C230.515 131.078 230.65 130.838 230.65 130.508C230.65 130.257 230.54 130.047 230.325 129.872C230.11 129.702 229.69 129.492 229.074 129.257C228.484 129.037 228.064 128.847 227.814 128.682C227.569 128.516 227.389 128.326 227.263 128.121C227.143 127.911 227.088 127.661 227.088 127.371C227.088 126.856 227.298 126.45 227.714 126.15C228.134 125.855 228.714 125.7 229.445 125.7C230.125 125.7 230.79 125.84 231.446 126.115L231.101 126.896C230.465 126.63 229.89 126.5 229.37 126.5C228.914 126.5 228.574 126.575 228.339 126.721C228.109 126.861 227.994 127.056 227.994 127.306C227.994 127.481 228.034 127.626 228.119 127.746C228.209 127.866 228.349 127.981 228.544 128.091C228.739 128.196 229.109 128.351 229.66 128.551C230.41 128.832 230.915 129.107 231.181 129.387C231.451 129.657 231.581 130.007 231.581 130.422Z" fill="#747474"/>
<path d="M226.608 86.7667V87.5872H225.492V90.979H224.467V87.5872H223.351V86.7667H226.608Z" fill="black"/>
<path d="M231.895 86.7667V90.979H230.87V88.4526L229.929 90.979H229.099L228.148 88.4476V90.979H227.123V86.7667H228.333L229.514 89.6833L230.685 86.7667H231.895Z" fill="black"/>
<path d="M157.411 0.0251465V0.845595H156.295V4.23742H155.269V0.845595H154.154V0.0251465H157.411Z" fill="black"/>
<path d="M162.698 0.0251465V4.23742H161.673V1.71105L160.732 4.23742H159.902L158.951 1.70606V4.23742H157.926V0.0251465H159.136L160.317 2.94172L161.487 0.0251465H162.698Z" fill="black"/>
</svg>
