<svg version="1.2" xmlns="http://www.w3.org/2000/svg" viewBox="0 0 16 16" width="16" height="16">
	<title>image</title>
	<style>
		.s0 { fill: none;stroke: #3b868f;stroke-width: 1.4 } 
	</style>
	<path id="Layer" class="s0" d="m6 6.7c0-0.9 0.8-1.7 1.7-1.7 0.9 0 1.6 0.8 1.6 1.7 0 0.9-0.7 1.6-1.6 1.6-0.9 0-1.7-0.7-1.7-1.6z"/>
	<path id="Layer" class="s0" d="m10.8 10.6c-1 1-3.1 3.4-3.1 3.4 0 0-2.2-2.5-3.1-3.4-1.1-1.1-1.9-2.3-1.9-3.9 0-2.8 2.1-5 4.9-5 2.8 0 5 2.2 5 5 0 1.5-0.8 2.8-1.8 3.9z"/>
</svg>