<svg version="1.2" xmlns="http://www.w3.org/2000/svg" viewBox="0 0 16 16" width="24" height="24">
	<title>image</title>
	<style>
		.s0 { fill: #3b868f } 
		.s1 { fill: #fefefe } 
	</style>
	<path id="Layer" class="s0" d="m0.7 6.9q-0.5-1.3-0.6-2.7c-0.1-1-0.2-2 0.1-2.9q0-0.4 0.3-0.8c0.3-0.5 0.9-0.6 1.5-0.3 0.5 0.2 0.8 0.6 1.1 0.9 0.7 0.9 1.1 1.8 1.5 2.7q0.1 0 0.1 0.2 0.3-0.4 0.6-0.7 0.4-0.2 0.7-0.4 0.2 0 0.2-0.2-0.1-0.1 0-0.3c0-0.1 0-0.2-0.2-0.2-0.1-0.1-0.2-0.2-0.2-0.3q0-0.5 0-1.1 0.1-0.2 0.4-0.2 1.2-0.1 2.4 0 0.3 0 0.3 0.2 0 0.6 0 1.1 0 0.2-0.2 0.3c-0.1 0-0.1 0.1-0.1 0.1 0 0.4 0 0.6 0.4 0.8 0.4 0.1 0.6 0.3 0.8 0.6 0.1 0 0.1 0.1 0.2 0 0.6-0.3 1.5-0.3 2.1 0.3q0 0 0 0 0.1-0.3 0.4-0.5 0.5-0.6 1.4-0.5c0.2 0.1 0.3 0.2 0.3 0.4q-0.1 0.2-0.4 0.2c-0.5 0-0.9 0.1-1.1 0.5 0.2 0 0.4 0 0.6 0q0.9 0.1 1.4 0.7c0.4 0.7 0.4 1.5 0.3 2.3 0 0 0.1-0.1 0.1-0.1q0.3-0.1 0.6-0.1 0.3 0 0.3 0.3 0 0 0 0.1 0 4.1 0 8.3c0 0.3-0.1 0.4-0.5 0.4q-7.5 0-15 0c-0.4 0-0.5-0.1-0.5-0.4q0-4.1 0-8.2c0-0.5 0.1-0.6 0.6-0.5q0 0 0.1 0z"/>
	<path id="Layer" class="s1" d="m0.6 7.5c0.2 0.1 0.2 0.2 0.3 0.3 0.5 0.5 1.4 0.5 1.9 0q0 0 0.1-0.1c0.3-0.4 0.7-0.4 1 0 0.5 0.6 1.5 0.6 2 0q0.1-0.1 0.2-0.2c0.2-0.1 0.5-0.1 0.7 0q0.1 0.2 0.3 0.3c0.5 0.5 1.3 0.5 1.8 0q0.1-0.1 0.3-0.2c0.2-0.2 0.5-0.2 0.7 0q0.1 0.1 0.2 0.2c0.5 0.5 1.4 0.5 1.9 0q0.1-0.1 0.3-0.2c0 0 0 0.1 0 0.1q0 3.8 0 7.6c0 0.1 0 0.2-0.2 0.2q-5.6-0.1-11.3 0c-0.1 0-0.2-0.1-0.2-0.2q0-3.9 0-7.8z"/>
	<path id="Layer" class="s1" d="m13 7.5c0.3 0.4 0.6 0.7 1.2 0.7 0.5 0 0.8-0.3 1.2-0.7q0 0.1 0 0.2 0 3.8 0 7.6c0 0.1-0.1 0.2-0.2 0.2q-1.1-0.1-2.1 0c-0.1 0-0.2 0-0.2-0.2q0-3.8 0-7.7 0 0 0.1-0.1z"/>
	<path id="Layer" class="s1" d="m4.2 7.3q0-0.1 0-0.1c-0.5-0.4-1.3-0.4-1.7 0.1q-0.2 0.1-0.3 0.2c-0.3 0.2-0.7 0.1-0.8-0.2q-0.7-2.3-0.8-4.7c0-0.5 0.1-1 0.2-1.5 0.3-0.6 0.6-0.7 1.2-0.3 0.5 0.4 0.8 0.9 1.1 1.4q0.8 1.2 1.3 2.4 0 0.1 0 0.2c-0.2 0.8-0.1 1.6-0.1 2.4q0 0 0 0 0 0.1-0.1 0.1z"/>
	<path id="Layer" class="s1" d="m4.9 6.3c0-0.4 0-0.9 0.1-1.3q0.2-1.2 1.4-1.7c0.3-0.1 0.4-0.1 0.4-0.4q0-0.3 0-0.6 0-0.1 0.1-0.1 0.5 0 1 0c0.1 0 0.1 0 0.1 0.1q0 0.3 0 0.6c0 0.3 0 0.3 0.3 0.4q0.6 0.3 1 0.7c0.1 0.1 0.1 0.1 0 0.2q-1.3 1.4-1 3.2 0.1 0.2-0.1 0.2-0.3 0.1-0.6-0.1-0.1-0.1-0.2-0.2c-0.5-0.5-1.4-0.5-1.9 0-0.1 0.1-0.2 0.2-0.4 0.3-0.1 0-0.2 0.1-0.2-0.1 0-0.4 0-0.8 0-1.2z"/>
	<path id="Layer" class="s1" d="m8.9 7.1c-0.1-1 0.2-1.9 0.9-2.6q0.2-0.2 0.4-0.3c0.7-0.3 1.4-0.1 1.7 0.5q0 0.1 0 0.1c0.1 0.2 0.3 0.3 0.5 0.1q0.3-0.2 0.7-0.3c0.5 0 0.8 0.2 1 0.5 0.3 0.5 0.4 0.9 0.3 1.4q0 0.5-0.2 1c-0.1 0.1-0.1 0.1-0.3 0.1-0.1-0.1-0.2-0.2-0.3-0.3-0.6-0.5-1.4-0.5-2 0q-0.1 0.1-0.2 0.2c-0.2 0.2-0.5 0.2-0.7 0q-0.1-0.1-0.2-0.1c-0.5-0.5-0.9-0.6-1.6-0.3z"/>
	<path id="Layer" class="s1" d="m7.4 1.1q0.4 0 0.8 0 0.1 0 0.1 0.1c0 0.5 0 0.5-0.5 0.5q-0.6 0-1.2 0c-0.1 0-0.1-0.1-0.1-0.2 0-0.4 0-0.4 0.4-0.4q0.3 0 0.5 0z"/>
	<path id="Layer" class="s0" d="m1.7 4.3c-0.2 0-0.4-0.2-0.3-0.4q0.3-0.8 0.7-1.7 0 0 0-0.1c0.1-0.2 0.3-0.3 0.4-0.2 0.2 0 0.3 0.2 0.2 0.4q-0.3 0.8-0.6 1.7-0.1 0-0.1 0.1-0.1 0.2-0.3 0.2z"/>
	<path id="Layer" class="s0" d="m3.4 4.6q0 0 0 0.1-0.3 0.9-0.7 1.8-0.1 0.3-0.4 0.2-0.3-0.1-0.1-0.4 0.3-0.9 0.6-1.8 0.1-0.3 0.4-0.2 0.2 0 0.2 0.3z"/>
</svg>