<svg version="1.2" xmlns="http://www.w3.org/2000/svg" viewBox="0 0 16 16" width="24" height="24">
	<title>image</title>
	<style>
		.s0 { fill: #3b868f } 
	</style>
	<path id="Layer" class="s0" d="m0.6 7.3c-0.3 0-0.5-0.1-0.6-0.6q0-0.1 0-0.3c0.1-0.4 0.4-0.6 0.7-0.6q2 0 4 0 0.5 0 0.6 0.6c0.1 0.4-0.1 0.8-0.4 0.9q-0.1 0-0.2 0-2 0-4.1 0z"/>
	<path id="Layer" fill-rule="evenodd" class="s0" d="m16 9.4q0 1.8 0 3.6 0 0.9-0.6 0.8-0.6 0.1-1.2 0c-0.1 0-0.2 0.1-0.2 0.2-0.3 1.2-1.1 2-1.9 2-0.9 0-1.6-0.8-1.9-2-0.1-0.1-0.1-0.2-0.2-0.2q-1.4 0.1-2.7 0c-0.1 0-0.2 0.1-0.2 0.2-0.3 1.2-1.1 2-1.9 2-0.9 0-1.6-0.8-1.9-2 0-0.1-0.1-0.2-0.2-0.2q-0.6 0.1-1.1 0c-0.3 0-0.6-0.2-0.6-0.6 0-0.4 0.2-0.7 0.5-0.8q0 0 0.1 0 0.6 0 1.1 0c0.1 0 0.1 0 0.2-0.2 0.2-1.1 0.9-1.9 1.7-2 1-0.1 1.8 0.7 2.1 2 0 0.1 0.1 0.2 0.2 0.2q1.3 0 2.7 0c0.1 0 0.1-0.1 0.2-0.2 0.2-1.2 1-2 1.9-2 0.9 0 1.6 0.8 1.9 2 0 0.2 0.1 0.2 0.2 0.2q0.3 0 0.7 0c0.1 0 0.1 0 0.1-0.2q0-1.7 0-3.4 0-0.2-0.1-0.3-0.3-0.5-0.5-1.1-0.1-0.1-0.3-0.1-1.8 0-3.6 0c-0.5 0-0.7-0.3-0.7-0.9q0-2.3 0-4.7c0-0.2 0-0.3-0.2-0.2q-3.8 0-7.5 0-0.2 0-0.3-0.1c-0.2-0.1-0.4-0.4-0.4-0.7 0.1-0.4 0.2-0.7 0.5-0.7q0.1 0 0.2 0 2 0 4 0 2.1 0 4.1 0c0.5 0 0.6 0.2 0.6 0.9 0 0.6 0 0.6 0.4 0.6q0.8 0 1.7 0 0.4-0.1 0.6 0.5 0.5 1.6 1.1 3.1 0.3 1.1 0.9 2.1c0.6 1.1 0.5 0.7 0.5 2.2zm-2.3-3.6q0 0 0-0.1-0.5-1.3-1-2.7 0-0.1-0.1-0.1-0.8 0-1.6 0c-0.1 0-0.2 0-0.2 0.2q0 1.3 0 2.6c0 0.1 0.1 0.1 0.1 0.1q1.4 0 2.8 0zm-7.5 7.3c0-0.8-0.5-1.5-1-1.5-0.6 0.1-1 0.7-1 1.5 0 0.8 0.4 1.5 1 1.4 0.6 0 1-0.6 1-1.4zm6.9 0c0-0.8-0.5-1.5-1-1.5-0.6 0.1-1 0.7-1 1.5 0 0.8 0.4 1.4 1 1.4 0.5 0 1-0.6 1-1.4z"/>
	<path id="Layer" class="s0" d="m0.8 3.5c0.1-0.3 0.3-0.5 0.6-0.5q1 0 2.1 0 1 0 2.1 0c0.3 0 0.5 0.3 0.5 0.7 0 0.4-0.2 0.7-0.4 0.7q-0.1 0-0.1 0-2.1 0-4.2 0c-0.4 0-0.6-0.4-0.6-0.9z"/>
	<path id="Layer" class="s0" d="m1.3 10.2c-0.3-0.1-0.5-0.4-0.5-0.8 0-0.4 0.2-0.7 0.5-0.7q0.6 0 1.2 0 0 0 0 0 0.6 0 1.2 0c0.3 0 0.5 0.5 0.4 1-0.1 0.3-0.2 0.5-0.4 0.5q-1.2 0-2.4 0z"/>
</svg>