<svg version="1.2" xmlns="http://www.w3.org/2000/svg" viewBox="0 0 16 16" width="24" height="24">
	<title>image</title>
	<style>
		.s0 { fill: #3b868f } 
	</style>
	<path id="Layer" fill-rule="evenodd" class="s0" d="m15.9 2.6q0 5.9 0 11.8c-0.1 0.7-0.5 1.1-1.1 1.4-0.1 0.1-0.3 0-0.4 0.1q-6.4 0-12.8 0c-0.7-0.1-1.1-0.5-1.4-1.1q-0.1-0.2-0.1-0.5 0-5.8 0-11.6c0-0.6 0.5-1.3 1.1-1.5q0.3-0.1 0.7-0.1 0.5 0 1 0c0.1 0 0.1 0 0.1-0.2q0-0.2 0.1-0.3c0-0.3 0.2-0.4 0.4-0.5q0.4 0 0.6 0.4 0 0.2 0 0.4 0 0.2 0.2 0.2 0.8 0 1.5 0c0.2 0 0.2 0 0.2-0.2q0-0.2 0-0.3c0-0.2 0.2-0.4 0.4-0.4 0.3-0.1 0.5 0 0.6 0.2 0.1 0.1 0 0.3 0 0.5 0 0.2 0 0.2 0.3 0.2q0.7 0 1.5 0c0.2 0 0.2 0 0.2-0.2q0-0.2 0-0.3c0-0.3 0.2-0.5 0.5-0.5q0.5 0.1 0.5 0.5 0 0.2 0 0.3 0 0.2 0.1 0.2 0.9 0 1.7 0 0.1 0 0.1-0.2 0-0.2 0-0.3 0.1-0.5 0.5-0.5c0.3 0 0.5 0.2 0.6 0.5q0 0.2 0 0.3 0 0.2 0.1 0.2 0.6 0 1.1 0 1.1 0 1.6 1c0 0.2 0 0.4 0.1 0.5zm-14.7 1.5q3.4 0 6.8 0 2.2 0 4.4 0 1.2 0 2.4 0c0.1 0 0.2 0 0.1-0.1q0-0.6 0-1.1c0-0.5-0.3-0.8-0.7-0.8q-0.6 0-1.2 0c-0.1 0-0.1 0-0.1 0.1q0 0.2 0 0.4c0 0.2-0.2 0.4-0.4 0.4-0.3 0.1-0.5-0.1-0.5-0.4q0-0.2 0-0.4 0-0.1-0.1-0.1-0.9 0-1.9 0-0.1 0-0.1 0.1 0.1 0.2 0 0.4c0 0.3-0.2 0.4-0.4 0.4-0.3 0-0.5-0.2-0.5-0.4q0-0.2 0-0.4 0-0.1-0.1-0.1-0.9 0-1.8 0-0.1 0-0.1 0.1 0 0.2 0 0.4c0 0.2-0.2 0.4-0.5 0.4-0.2 0-0.4-0.1-0.4-0.4q0-0.2 0-0.4 0-0.2-0.1-0.1-0.9 0-1.9 0-0.1 0-0.1 0.1 0 0.2 0 0.4c0 0.3-0.2 0.5-0.4 0.4-0.3 0-0.5-0.2-0.5-0.4q0-0.2 0-0.4 0-0.2-0.1-0.1-0.6 0-1.1 0c-0.5 0-0.8 0.3-0.8 0.8q0 0.5 0 1c0 0.2 0 0.2 0.1 0.2zm13.7 1.1c0-0.2 0-0.2-0.1-0.2q-3.4 0-6.8 0-3.4 0-6.8 0c-0.1 0-0.1 0.1-0.1 0.2q0 4.4 0 8.9c0 0.5 0.3 0.8 0.8 0.8q6.1 0 12.2 0c0.5 0 0.8-0.3 0.8-0.8q0-4.5 0-8.9z"/>
	<path id="Layer" fill-rule="evenodd" class="s0" d="m13.7 11q0 1 0 1.9c0 0.3-0.2 0.5-0.6 0.5q-0.4 0-0.9 0-0.5 0-0.9 0c-0.4 0-0.6-0.2-0.6-0.5q0-0.9 0-1.9c0-0.3 0.2-0.5 0.6-0.5q0.9 0 1.8 0c0.4 0 0.6 0.2 0.6 0.5zm-1 1.4q0-0.4 0-0.9 0-0.1-0.1-0.1-0.4 0-0.8 0-0.1 0-0.1 0.1 0 0.2 0 0.5 0 0.2 0 0.4 0 0.1 0.1 0.1 0.4 0 0.8 0 0.1 0 0.1-0.1z"/>
	<path id="Layer" fill-rule="evenodd" class="s0" d="m5.3 11q0 1 0 1.9c0 0.3-0.2 0.5-0.5 0.5q-1 0-1.9 0c-0.3 0-0.5-0.2-0.5-0.5q0-0.5 0-0.9 0-0.5 0-1c0-0.3 0.2-0.5 0.5-0.5q0.9 0 1.8 0c0.4 0 0.6 0.2 0.6 0.5zm-1 0.5q0.1-0.1-0.1-0.1-0.4 0-0.8 0-0.1 0-0.1 0.1 0 0.5 0 0.9 0 0.1 0.1 0.1 0.4 0 0.8 0 0.2 0 0.1-0.1 0-0.2 0-0.4 0-0.3 0-0.5z"/>
	<path id="Layer" fill-rule="evenodd" class="s0" d="m13.7 7.1q0 0.9 0 1.8c0 0.4-0.2 0.6-0.6 0.6q-0.9 0-1.8 0c-0.4 0-0.6-0.2-0.6-0.6q0-0.9 0-1.8c0-0.3 0.2-0.5 0.6-0.5q0.4 0 0.9 0 0.5 0 0.9 0c0.4 0 0.6 0.2 0.6 0.5zm-1 1.3q0-0.2 0-0.4 0-0.2 0-0.4 0-0.1-0.1-0.1-0.4 0-0.8 0-0.1 0-0.1 0.1 0 0.4 0 0.8 0 0.1 0.1 0.1 0.4 0 0.8 0 0.1 0 0.1-0.1z"/>
	<path id="Layer" fill-rule="evenodd" class="s0" d="m9.5 11q0 1 0 1.9c0 0.3-0.2 0.5-0.5 0.5q-1 0-2 0c-0.2 0-0.4-0.2-0.4-0.5q0-0.5 0-0.9 0-0.5 0-1c0-0.3 0.2-0.5 0.5-0.5q0.9 0 1.9 0c0.3 0 0.5 0.2 0.5 0.5zm-1 1.4q0-0.2 0-0.4 0-0.3 0-0.5c0 0 0-0.1-0.1-0.1q-0.4 0-0.8 0-0.1 0-0.1 0.1 0 0.5 0 0.9 0 0.1 0.1 0.1 0.4 0 0.8 0 0.1 0 0.1-0.1z"/>
	<path id="Layer" fill-rule="evenodd" class="s0" d="m5.3 7.1q0 0.9 0 1.9c0 0.3-0.2 0.5-0.5 0.5q-1 0-1.9 0c-0.4 0-0.5-0.2-0.5-0.6q0-0.9 0-1.8c0-0.3 0.2-0.5 0.5-0.5q0.4 0 0.9 0 0.5 0 1 0c0.3 0 0.5 0.2 0.5 0.5zm-1 1.3q0-0.4 0-0.8 0-0.1-0.1-0.1-0.4 0-0.8 0-0.1 0-0.1 0.1 0 0.2 0 0.4 0 0.2 0 0.4 0 0.1 0.1 0.1 0.4 0 0.8 0 0.1 0.1 0.1-0.1z"/>
	<path id="Layer" class="s0" d="m9.5 7.2q0.1 0.2-0.1 0.4-0.7 0.7-1.4 1.4c-0.2 0.2-0.5 0.2-0.7 0q-0.3-0.3-0.7-0.7-0.1-0.1-0.1-0.3 0-0.3 0.3-0.4 0.2-0.1 0.5 0.1 0.1 0.1 0.3 0.3 0.1 0.1 0.1 0 0.5-0.5 1-1c0.3-0.3 0.7-0.2 0.8 0.2z"/>
</svg>