<svg version="1.2" xmlns="http://www.w3.org/2000/svg" viewBox="0 0 16 16" width="24" height="24">
	<title>image</title>
	<style>
		.s0 { fill: #3b868f } 
		.s1 { fill: #fefefe } 
		.s2 { fill: #fdfdfd } 
	</style>
	<path id="Layer" class="s0" d="m1.2 16c-0.3-0.1-0.4-0.3-0.4-0.7q0-4.2 0-8.5c0-0.1 0-0.1-0.2-0.1q-0.5 0-0.6-0.4-0.1-0.4 0.3-0.6 2.6-2 5.2-3.9c0.3-0.2 0.5-0.2 0.7 0q0.9 0.6 1.7 1.2c0.2 0.2 0.2 0.3 0.1 0.5q-0.2 0.1-0.4 0-0.8-0.6-1.6-1.2c-0.1-0.1-0.2-0.1-0.3 0q-2.5 1.9-5 3.7-0.1 0.1-0.2 0.1 0.2 0 0.2 0 2.2 0 4.4 0 0.1 0 0.1 0c0.2 0.1 0.3 0.2 0.3 0.3q-0.1 0.2-0.3 0.3-0.1 0-0.1 0-1.8 0-3.6 0c-0.2 0-0.2 0-0.2 0.1q0 4.3 0 8.5c0 0.1 0 0.2 0.2 0.2q2.4 0 4.7 0c0.2 0 0.2-0.1 0.2-0.2q0-1.1 0-2.2c0-1 0.8-1.7 1.7-1.6 0.8 0 1.5 0.7 1.5 1.4q0 1.2 0 2.4c0 0.1 0 0.2 0.2 0.2q0.2 0 0.5 0c0.1 0 0.1-0.1 0.1-0.2q0-1.1 0-2.2 0-1.1 0-2.2c0-0.2 0-0.3 0.1-0.3 0.2-0.1 0.4-0.1 0.4 0.1q0 0.1 0 0.2 0 2.2 0 4.4c0 0.4-0.1 0.6-0.4 0.7q-4.6 0-9.3 0z"/>
	<path id="Layer" class="s0" d="m16 1.8c-0.1 0.1-0.1 0.2-0.1 0.3q-0.1 0.4-0.5 0.6-1.4 1.3-2.8 2.6c-0.1 0.1-0.1 0.1-0.1 0.2 0.3 0.7 0.2 1.5-0.3 2.1-0.1 0.1-0.3 0.3-0.5 0.3 0 0.1 0 0.1 0 0.2q-0.2 0.7-0.4 1.4 0 0.2-0.2 0.3c-0.4 0.2-0.8 0.3-1.2 0.2-1.9-0.2-3.6-1.7-3.9-3.7-0.1-0.3-0.1-0.7 0-1.1 0.1-0.3 0.3-0.5 0.6-0.5q0.7-0.2 1.3-0.4c0.1 0 0.1 0 0.2-0.1q0.4-0.7 1.2-0.9 0.6-0.1 1.2 0.2 0.1 0 0.2-0.1 1.2-1.4 2.5-2.8c0.4-0.4 0.8-0.6 1.3-0.6 0.7 0 1.4 0.6 1.5 1.3q0 0 0 0 0 0.3 0 0.5z"/>
	<path id="Layer" class="s0" d="m3.7 10.7q-0.6 0-1.2 0c-0.3 0-0.4-0.1-0.4-0.4q0-1.2 0-2.5c0-0.2 0.1-0.3 0.4-0.3q1.2 0 2.5 0 0.3 0 0.3 0.3 0 1.3 0 2.5 0 0.4-0.3 0.4-0.6 0-1.3 0z"/>
	<path id="Layer" class="s0" d="m3.7 14.7q-0.6 0-1.2 0c-0.3 0-0.4-0.1-0.4-0.4q0-1.2 0-2.5c0-0.2 0.1-0.3 0.4-0.3q1.2 0 2.5 0 0.3 0 0.3 0.3 0 1.3 0 2.5 0 0.4-0.3 0.4-0.6 0-1.3 0z"/>
	<path id="Layer" class="s0" d="m8.4 0.3c0.5 0 0.9 0.4 0.9 0.9 0 0.5-0.4 0.9-0.9 0.9-0.5 0-0.9-0.4-0.9-0.9 0-0.5 0.4-0.9 0.9-0.9z"/>
	<path id="Layer" class="s0" d="m12.9 9.3c0.5 0 1 0.4 1 1 0 0.5-0.5 0.9-1 0.9-0.5 0-0.9-0.4-0.9-0.9 0-0.5 0.4-1 0.9-1z"/>
	<path id="Layer" class="s0" d="m2.1 2.4q-0.2 0-0.2-0.2-0.1-0.1 0-0.2 0.2-0.3 0.5-0.5 0.1-0.1 0.3 0c0.1 0.1 0.1 0.3 0 0.4q-0.2 0.2-0.4 0.5-0.1 0-0.2 0z"/>
	<path id="Layer" class="s0" d="m4 0.5q0 0.2-0.1 0.2-0.2 0.2-0.4 0.4c-0.1 0.1-0.3 0.1-0.4 0q-0.1-0.2 0-0.4 0.2-0.2 0.4-0.4 0.2-0.1 0.3 0 0.2 0.1 0.2 0.2z"/>
	<path id="Layer" class="s0" d="m4 2.1q0 0.2-0.2 0.3-0.1 0-0.2-0.1-0.3-0.2-0.5-0.4c-0.1-0.1-0.1-0.3 0-0.4q0.2-0.1 0.4 0 0.2 0.2 0.4 0.5 0.1 0 0.1 0.1z"/>
	<path id="Layer" class="s0" d="m2.1 0.3c0.2 0 0.7 0.5 0.7 0.6q0 0.2-0.2 0.3-0.1 0-0.2-0.1-0.3-0.2-0.5-0.4-0.1-0.1 0-0.3 0.1-0.1 0.2-0.1z"/>
	<path id="Layer" class="s0" d="m13.6 8q-0.1 0-0.3 0c-0.1 0-0.2-0.1-0.2-0.3 0-0.1 0.1-0.2 0.2-0.2q0.3 0 0.6 0c0.1 0 0.2 0.1 0.2 0.2 0 0.2-0.1 0.3-0.2 0.3q0 0-0.1 0-0.1 0-0.2 0 0 0 0 0z"/>
	<path id="Layer" class="s0" d="m14.7 6.9q0 0.2 0 0.3c0 0.2-0.2 0.3-0.3 0.3q-0.2 0-0.3-0.2 0-0.4 0-0.7c0.1-0.1 0.2-0.2 0.3-0.2q0.2 0 0.3 0.3 0 0.1 0 0.2z"/>
	<path id="Layer" class="s0" d="m15.2 8q-0.1 0-0.3 0c-0.1 0-0.2-0.1-0.2-0.3 0-0.1 0.1-0.2 0.2-0.2q0.3 0 0.6 0c0.1 0 0.2 0.1 0.2 0.2 0 0.2-0.1 0.3-0.2 0.3q-0.2 0-0.3 0z"/>
	<path id="Layer" class="s0" d="m14.7 8.5q0 0.2 0 0.3-0.1 0.2-0.3 0.3c-0.1 0-0.2-0.1-0.3-0.2q0-0.4 0-0.7c0.1-0.1 0.2-0.2 0.3-0.2q0.2 0 0.3 0.3 0 0.1 0 0.2 0 0 0 0z"/>
	<path id="Layer" class="s1" d="m9.1 14.2q0 0.6 0 1.1c0 0.1-0.1 0.2-0.2 0.2q-0.9 0-1.9 0c0 0-0.1-0.1-0.1-0.2q0-1.1 0-2.2c0-0.6 0.5-1.1 1.1-1.1 0.6 0 1.1 0.5 1.1 1.1q0 0.5 0 1.1z"/>
	<path id="Layer" class="s1" d="m7.5 8.2q-0.5-0.5-0.7-1.1c-0.1-0.1 0-0.1 0-0.1q0.4-0.1 0.8-0.2 0.3-0.1 0.3-0.4-0.1-0.2-0.4-0.2-0.4 0.2-0.8 0.3c-0.1 0-0.1 0-0.2-0.1 0-0.3 0-0.7 0-1q0.1-0.2 0.3-0.2 0.6-0.2 1.3-0.4 0.1 0 0.2 0.1 1.4 1.4 2.8 2.8 0.1 0.1 0.1 0.2-0.2 0.7-0.4 1.3 0 0.2-0.1 0.2c-0.4 0.2-0.8 0.1-1.1 0-0.1 0-0.1-0.1-0.1-0.1q0.1-0.4 0.3-0.8 0-0.3-0.2-0.4-0.3 0-0.4 0.2-0.1 0.4-0.2 0.9 0 0.1-0.1 0-0.5-0.2-1-0.6-0.1 0 0-0.1 0.4-0.4 0.8-0.8c0-0.1 0.1-0.1 0.1-0.2q0-0.2-0.2-0.3-0.1 0-0.3 0.1-0.4 0.4-0.7 0.7-0.1 0.1-0.1 0.2z"/>
	<path id="Layer" class="s1" d="m15.5 1.6q0 0.4-0.4 0.7-1.4 1.3-2.9 2.6 0 0.1-0.1 0-0.5-0.5-1-1c-0.1-0.1-0.1-0.1 0-0.2q1-1.1 2-2.2 0.3-0.3 0.6-0.7c0.3-0.3 0.8-0.3 1.1-0.2 0.4 0.2 0.7 0.5 0.7 1z"/>
	<path id="Layer" class="s1" d="m9.6 3.8q0.6 0 1 0.4 0.6 0.6 1.2 1.2c0.5 0.6 0.5 1.5-0.2 2 0 0-0.1 0-0.1-0.1q-0.6-0.5-1.1-1.1-0.9-0.8-1.7-1.7c-0.1-0.1-0.1-0.1 0-0.2 0.2-0.3 0.6-0.5 0.9-0.5z"/>
	<path id="Layer" class="s2" d="m4.4 8.8c-0.1 0-0.3 0.1-0.4 0-0.1-0.1 0-0.3 0-0.4 0-0.1-0.1-0.3 0-0.4 0.1-0.1 0.3 0 0.4 0 0.1 0 0.3-0.1 0.4 0 0 0.1 0 0.3 0 0.4 0 0.1 0.1 0.3 0 0.4-0.1 0-0.3 0-0.4 0z"/>
	<path id="Layer" class="s1" d="m3.5 8.4c-0.1 0.1 0 0.3-0.1 0.4 0 0-0.2 0-0.3 0-0.2 0-0.3 0.1-0.4 0-0.1-0.1 0-0.3 0-0.4 0-0.1-0.1-0.3 0-0.4 0.1-0.1 0.2 0 0.4 0 0.1 0 0.3 0 0.3 0 0.1 0.1 0 0.3 0.1 0.4z"/>
	<path id="Layer" class="s1" d="m4.8 9.7c0 0.2 0.1 0.3 0 0.4-0.1 0.1-0.3 0-0.4 0-0.1 0-0.3 0.1-0.4 0-0.1-0.1 0-0.2 0-0.4 0-0.1-0.1-0.3 0-0.3 0.1-0.1 0.3-0.1 0.4-0.1q0.1 0 0.3 0 0.1 0 0.1 0.1 0 0.2 0 0.3z"/>
	<path id="Layer" class="s1" d="m3.5 9.7c-0.1 0.2 0 0.3-0.1 0.4 0 0.1-0.2 0-0.3 0-0.2 0-0.3 0.1-0.4 0-0.1-0.1 0-0.2 0-0.4 0-0.1-0.1-0.3 0-0.3 0.1-0.1 0.2-0.1 0.3-0.1q0 0 0.1 0c0.1 0 0.3 0 0.3 0.1 0.1 0 0 0.2 0.1 0.3z"/>
	<path id="Layer" class="s2" d="m4.4 12c0.1 0 0.3-0.1 0.4 0 0 0.1 0 0.3 0 0.4 0 0.1 0.1 0.3 0 0.4-0.1 0.1-0.3 0-0.4 0-0.1 0-0.3 0.1-0.4 0-0.1-0.1 0-0.3 0-0.4 0-0.1-0.1-0.3 0-0.4 0.1-0.1 0.3 0 0.4 0z"/>
	<path id="Layer" class="s1" d="m3.1 12c0.1 0 0.3 0 0.3 0 0.1 0.1 0.1 0.3 0.1 0.4 0 0.1 0 0.3-0.1 0.4 0 0-0.2 0-0.3 0-0.2 0-0.3 0.1-0.4 0-0.1-0.1 0-0.3 0-0.4q0 0 0 0c0-0.1-0.1-0.3 0-0.4 0.1-0.1 0.2 0 0.4 0z"/>
	<path id="Layer" class="s1" d="m4.8 13.7c0 0.2 0 0.3 0 0.4-0.1 0.1-0.3 0-0.4 0q-0.1 0-0.3 0-0.1 0.1-0.1-0.1 0-0.3 0-0.5 0-0.2 0.1-0.2 0.3 0 0.6 0 0.1 0 0.1 0.1 0 0.2 0 0.3 0 0 0 0z"/>
	<path id="Layer" class="s1" d="m3.1 13.3c0.1 0 0.3 0 0.3 0.1 0.1 0 0.1 0.2 0.1 0.3 0 0.2 0 0.3-0.1 0.4 0 0.1-0.2 0-0.4 0-0.1 0-0.2 0.1-0.3 0-0.1-0.1 0-0.2 0-0.4q0 0 0 0c0-0.1-0.1-0.3 0-0.3 0.1-0.1 0.2-0.1 0.4-0.1z"/>
	<path id="Layer" class="s1" d="m8.4 0.8c0.2 0 0.4 0.2 0.4 0.4 0 0.2-0.2 0.4-0.4 0.4-0.2 0-0.4-0.2-0.4-0.4 0-0.2 0.2-0.4 0.4-0.4z"/>
	<path id="Layer" class="s1" d="m12.9 10.7c-0.2 0-0.4-0.2-0.4-0.4 0-0.3 0.2-0.4 0.4-0.4 0.3 0 0.4 0.2 0.4 0.4 0 0.2-0.2 0.4-0.4 0.4z"/>
	<path id="Layer" class="s0" d="m8.5 13.9q0 0.1 0 0.3 0 0.2-0.2 0.2c-0.2 0-0.3-0.1-0.3-0.2q0-0.3 0-0.7 0.1-0.2 0.3-0.2 0.2 0.1 0.2 0.3 0 0.1 0 0.3z"/>
</svg>