<svg version="1.2" xmlns="http://www.w3.org/2000/svg" viewBox="0 0 24 24" width="24" height="24">
	<title>image</title>
	<style>
		.s0 { fill: #3b868f } 
	</style>
	<path id="Layer" class="s0" d="m18.4 17q-0.7 0.8-1.5 1.5c-1.6 1.2-3.3 1.8-5.2 1.8-1.8 0-3.3-0.5-4.7-1.3-0.2-0.2-0.3-0.3-0.3-0.5q0.1-0.4 0.4-0.4c0.2 0 0.3 0 0.4 0.1q2 1.2 4.3 1.2 3.5-0.2 5.7-2.7 0.1-0.2 0.2-0.3c0.2-0.2 0.5-0.2 0.7 0 0.2 0.1 0.2 0.4 0 0.6z"/>
	<path id="Layer" class="s0" d="m7.4 4.3q0-0.3 0.3-0.4 1.1-0.6 2.3-0.8 0.8-0.2 1.6-0.2 3.6 0.1 6.2 2.7c0.1 0 0.2 0.1 0.2 0.3q0.1 0.3-0.2 0.4-0.3 0.2-0.5 0-0.4-0.4-0.8-0.7-2.5-2-5.6-1.7-1.4 0.1-2.7 0.8c-0.2 0-0.3 0.1-0.5 0q-0.3-0.1-0.3-0.4z"/>
	<path id="Layer" class="s0" d="m6.3 17.4c0 0.3-0.2 0.5-0.5 0.5-0.2 0-0.4-0.2-0.4-0.5 0-0.2 0.2-0.4 0.4-0.4 0.3 0 0.5 0.2 0.5 0.4z"/>
	<path id="Layer" fill-rule="evenodd" class="s0" d="m4.5 8.5c-0.1 0.1-0.1 0.2-0.1 0.3q0 6.5 0 13c0 0.7-0.3 1.2-0.9 1.4-0.1 0-0.2 0-0.2 0q-0.3 0-0.5 0c-0.9-0.2-1.1-0.9-1.1-1.7q0-6.4 0-12.7c0-0.2-0.1-0.3-0.2-0.4q-1.2-0.6-1.5-2 0 0 0 0c0-0.1 0-0.2 0-0.2q0-3 0-5.9 0-0.3 0.3-0.3 0.2 0 0.3 0c0.3 0.1 0.4 0.2 0.4 0.6q0 2.1 0 4.2c0 0.5 0 0.5 0.5 0.5q0.1 0 0.2-0.2 0-0.1 0-0.2 0-2.1 0-4.1 0-0.2 0-0.3c0-0.3 0.1-0.4 0.3-0.5q0.2 0 0.3 0c0.3 0.1 0.4 0.2 0.4 0.6q0 2.1 0 4.2c0 0.5 0 0.5 0.5 0.5q0.2 0 0.2-0.2 0-0.1 0-0.2 0-2.1 0-4.1 0-0.2 0-0.3c0-0.3 0.1-0.4 0.4-0.5q0.1 0 0.2 0c0.3 0.1 0.4 0.2 0.4 0.6q0 2.1 0 4.2c0 0.5 0.1 0.5 0.5 0.5q0.2 0 0.2-0.2 0-0.1 0-0.2 0-2.1 0-4.1 0-0.2 0-0.3c0-0.3 0.1-0.4 0.4-0.5q0.1 0 0.3 0c0.2 0.1 0.3 0.3 0.3 0.6q0 2.6 0 5.3 0 1.7-1.6 2.6zm0.6-2.2q0 0 0 0-2 0-4 0c-0.2 0-0.2 0.1-0.1 0.1q0.2 1 1.1 1.3c0.4 0.2 0.5 0.3 0.5 0.7q0 6.6 0 13.3 0 0.6 0.4 0.6 0.5 0 0.5-0.6 0-6.7 0-13.3c0-0.4 0-0.5 0.4-0.7q1-0.4 1.2-1.4z"/>
	<path id="Layer" fill-rule="evenodd" class="s0" d="m23.2 0.3q0 10.9 0 21.8-0.1 1-1.1 1.1-0.3 0-0.5 0-0.2 0-0.3-0.1-0.8-0.4-0.8-1.3 0-3.2 0-6.4 0-0.2-0.1-0.4-0.4-0.3-0.8-0.7-0.6-0.7-0.6-1.6c0-2.1-0.1-4.1 0-6.2 0.1-2.7 1.3-4.8 3.5-6.4q0.1 0 0.1-0.1 0.2 0 0.3 0 0.3 0 0.3 0.3zm-0.9 21.4q0-10 0-20.1 0 0 0-0.2c-1.6 1.5-2.4 3.2-2.4 5.4q0 2.9 0 5.8 0 0.7 0.4 1.1 0.5 0.5 0.9 0.9 0.2 0.2 0.2 0.5 0 3.3 0 6.6 0 0.1 0 0.2c0 0.2 0.2 0.4 0.5 0.4 0.2 0 0.4-0.2 0.4-0.4q0-0.1 0-0.2z"/>
	<path id="Layer" fill-rule="evenodd" class="s0" d="m11.6 18.1c-3.5 0-6.4-2.9-6.4-6.5 0-3.5 2.9-6.4 6.4-6.4 3.6 0 6.5 2.9 6.5 6.4 0 3.6-2.9 6.5-6.5 6.5zm5.6-6.5c0-3-2.5-5.5-5.6-5.5-3 0-5.5 2.5-5.5 5.5 0 3.1 2.5 5.6 5.5 5.6 3.1 0 5.6-2.5 5.6-5.6z"/>
	<path id="Layer" class="s0" d="m7.9 12.1c-0.3 0-0.5-0.2-0.5-0.6q0 0 0 0c0.2-1.7 1-2.9 2.5-3.7 0.3-0.1 0.6 0 0.7 0.2 0.1 0.3 0 0.5-0.3 0.6q-1.5 0.8-1.9 2.4 0 0.3 0 0.5c-0.1 0.4-0.2 0.6-0.5 0.6z"/>
	<path id="Layer" class="s0" d="m11.1 7.9c0-0.3 0.2-0.5 0.5-0.5 0.3 0 0.5 0.2 0.5 0.5 0 0.2-0.2 0.4-0.5 0.5-0.3 0-0.5-0.2-0.5-0.5z"/>
</svg>