<svg version="1.2" xmlns="http://www.w3.org/2000/svg" viewBox="0 0 14 13" width="14" height="13">
	<title>image</title>
	<style>
		.s0 { fill: #ffb457 } 
	</style>
	<path id="Layer" class="s0" d="m6.1 0.7c0.4-0.7 1.4-0.7 1.8 0l1.3 2.5c0.2 0.3 0.4 0.5 0.7 0.5l2.8 0.5c0.8 0.1 1.1 1.1 0.6 1.7l-2 2c-0.2 0.3-0.3 0.6-0.3 0.9l0.4 2.8c0.1 0.8-0.7 1.4-1.4 1l-2.6-1.2c-0.2-0.2-0.6-0.2-0.8 0l-2.6 1.2c-0.7 0.4-1.5-0.2-1.4-1l0.4-2.8c0-0.3-0.1-0.6-0.3-0.9l-2-2c-0.5-0.6-0.2-1.6 0.6-1.7l2.8-0.5c0.3 0 0.5-0.2 0.7-0.5z"/>
</svg>