<svg version="1.2" xmlns="http://www.w3.org/2000/svg" viewBox="0 0 12 12" width="12" height="12">
	<title>image</title>
	<style>
		.s0 { fill: none;stroke: #fefefe;stroke-linecap: round } 
	</style>
	<path id="Layer" class="s0" d="m5 7.5v-1.5"/>
	<path id="Layer" class="s0" d="m7 7.5v-1.5"/>
	<path id="Layer" class="s0" d="m1.5 3.5h9c-0.8 0-1.5 0.7-1.5 1.5v2c0 0.9 0 1.4-0.2 1.8-0.2 0.5-0.5 0.8-1 1-0.4 0.2-0.9 0.2-1.8 0.2-0.9 0-1.4 0-1.8-0.2-0.5-0.2-0.8-0.5-1-1-0.2-0.4-0.2-0.9-0.2-1.8v-2c0-0.8-0.7-1.5-1.5-1.5z"/>
	<path id="Layer" class="s0" d="m5 1.7q0.1-0.1 0.4-0.1 0.3-0.1 0.6-0.1 0.3 0 0.6 0.1 0.3 0 0.4 0.1"/>
</svg>