<svg version="1.2" xmlns="http://www.w3.org/2000/svg" viewBox="0 0 60 60" width="60" height="60">
	<title>image</title>
	<style>
		.s0 { opacity: .2;fill: none;stroke: #55acee;stroke-width: 1.5 } 
		.s1 { fill: #55acee } 
	</style>
	<path id="Layer" class="s0" d="m30 59.3c-16.2 0-29.3-13.1-29.3-29.3 0.1-16.2 13.1-29.2 29.3-29.2 16.2 0 29.3 13 29.3 29.2-0.1 16.2-13.1 29.3-29.3 29.3z"/>
	<path id="Layer" class="s1" d="m44 22.7c-0.8 1.2-1.7 2.2-2.9 3q0.1 0.4 0.1 0.8c0 2.1-0.4 4.3-1.3 6.3-0.8 2-2 3.9-3.5 5.4-1.5 1.5-3.3 2.7-5.3 3.6-2 0.8-4.1 1.2-6.3 1.2-3.1 0-6.2-0.9-8.8-2.6q0.7 0.1 1.4 0.1c2.6 0 5.1-0.9 7.1-2.5-1.2 0-2.4-0.4-3.3-1.2-1-0.7-1.7-1.7-2.1-2.9 0.9 0.2 1.8 0.2 2.6-0.1-1.3-0.2-2.4-0.9-3.3-2-0.8-1-1.3-2.3-1.3-3.6q0-0.1 0-0.1c0.8 0.4 1.7 0.7 2.6 0.7-1.2-0.8-2-2.1-2.4-3.5-0.3-1.5-0.1-3 0.6-4.2 1.5 1.7 3.3 3.2 5.3 4.3 2.1 1 4.3 1.6 6.6 1.7-0.3-1.2-0.2-2.5 0.4-3.7 0.5-1.2 1.4-2.1 2.5-2.7 1.1-0.6 2.4-0.8 3.6-0.6 1.3 0.2 2.4 0.8 3.3 1.7q1.9-0.4 3.6-1.4c-0.4 1.4-1.3 2.5-2.5 3.2q1.7-0.2 3.3-0.9z"/>
</svg>