<svg version="1.2" xmlns="http://www.w3.org/2000/svg" viewBox="0 0 57 57" width="57" height="57">
	<title>image</title>
	<style>
		.s0 { fill: #3b868f } 
	</style>
	<path id="Layer" class="s0" d="m28 30.3c-5.9 0-10.7-4.7-10.7-10.6 0-5.9 4.8-10.7 10.7-10.7 5.9 0 10.7 4.8 10.7 10.7 0 5.9-4.8 10.6-10.7 10.6z"/>
	<path id="Layer" fill-rule="evenodd" class="s0" d="m46.7 48.7c0 0.2-0.1 0.3-0.3 0.3q-1 0-2.4 0h-32q-1.4 0-2.4 0c-0.2 0-0.3-0.1-0.3-0.3 0.2-8.7 8.5-15.7 18.7-15.7 10.2 0 18.5 7 18.7 15.7z"/>
</svg>