<svg width="83" height="66" viewBox="0 0 83 66" fill="none" xmlns="http://www.w3.org/2000/svg">
<path d="M46.3838 46.7553C49.3454 39.9766 62.5474 5.17792 66.2995 2.57652C67.8403 1.55097 69.6413 1.55097 70.5017 1.55097C71.3572 1.55097 71.8725 1.38088 71.8725 0.780553C71.8725 0.18023 71.1871 0.00512695 70.0715 0.00512695C67.5001 0.00512695 63.4729 0.265277 62.0172 0.265277C60.9016 0.265277 57.2996 0.00512695 53.0173 0.00512695C51.3865 0.00512695 50.616 0.180222 50.616 0.86559C50.616 1.46591 51.3014 1.55097 52.0768 1.55097C53.1874 1.55097 54.4731 1.63601 55.5037 1.97619C56.2741 2.23133 56.6143 2.9217 56.6143 3.60707C56.6143 4.37748 56.2591 5.65817 55.8438 6.77877C54.6132 10.1156 47.6394 29.0708 43.4922 39.4614L46.3838 46.7553Z" fill="#747474"/>
<path d="M32.7013 60.7727C34.3322 64.7998 34.8475 65.9955 35.9581 65.9955C37.1587 65.9955 37.674 64.6298 39.9002 59.6571C40.3404 58.6565 40.8957 57.3808 41.5611 55.86C37.584 45.8096 33.5418 36.0694 29.5446 25.5187L24.587 13.007L24.7771 12.932L23.8716 10.5457C22.671 7.459 21.9005 5.06271 21.9005 3.94711C21.9005 3.1767 22.1557 2.57637 22.756 2.14614C23.4464 1.63087 24.7271 1.54583 26.1028 1.54583C26.8732 1.54583 27.3885 1.37573 27.3885 0.775411C27.3885 0.175088 26.443 0 25.4174 0C21.1351 0 17.0179 0.260134 14.8768 0.260134C11.8802 0.260134 6.99252 0 2.45008 0C1.16439 0 0.223877 0.0900423 0.223877 0.775411C0.223877 1.29069 0.479008 1.54583 1.24942 1.54583C1.93979 1.54583 3.30553 1.54583 4.59622 1.88601C7.68288 2.74647 9.13367 3.68697 11.1097 8.39951L32.7013 60.7727Z" fill="#010101"/>
<path d="M77.4106 0.0251465V0.845595H76.2949V4.23742H75.2694V0.845595H74.1538V0.0251465H77.4106Z" fill="black"/>
<path d="M82.6981 0.0251465V4.23742H81.6725V1.71105L80.732 4.23742H79.9016L78.9511 1.70606V4.23742H77.9255V0.0251465H79.1362L80.3168 2.94172L81.4874 0.0251465H82.6981Z" fill="black"/>
</svg>
